REM DIRINDEX 1\2\6,1\2\7,1\2\8,1\2\9,1\3\10,1\3\11,1\4\12,1\4\13,1\4\14,1\5\15,1\5\16,1\5\17
REM DIRNAME cjc029,folder01,folder02,folder03,folder04,folder05,folder06,folder07,folder08,folder09,folder10,folder11,folder12,folder13,folder14,folder15,folder16
TITLE ""
FILE "1400_3_sec11_1017_1033.mp3" MP3
  TRACK 01 AUDIO
    TITLE "0:"
    INDEX 01 00:00:00
  TRACK 02 AUDIO
    TITLE "17:cjc029_6471"
    INDEX 01 00:00:15
  TRACK 03 AUDIO
    TITLE "0:"
    INDEX 01 00:01:17
  TRACK 04 AUDIO
    TITLE "16:cjc029_6472"
    INDEX 01 00:01:24
  TRACK 05 AUDIO
    TITLE "0:"
    INDEX 01 00:02:43
  TRACK 06 AUDIO
    TITLE "17:cjc029_6473"
    INDEX 01 00:03:29
  TRACK 07 AUDIO
    TITLE "0:"
    INDEX 01 00:04:38
  TRACK 08 AUDIO
    TITLE "16:cjc029_6474"
    INDEX 01 00:04:44
  TRACK 09 AUDIO
    TITLE "0:"
    INDEX 01 00:05:54
  TRACK 10 AUDIO
    TITLE "17:cjc029_6475"
    INDEX 01 00:06:39
  TRACK 11 AUDIO
    TITLE "0:"
    INDEX 01 00:07:68
  TRACK 12 AUDIO
    TITLE "16:cjc029_6476"
    INDEX 01 00:07:74
  TRACK 13 AUDIO
    TITLE "0:"
    INDEX 01 00:09:20
  TRACK 14 AUDIO
    TITLE "17:cjc029_6477"
    INDEX 01 00:10:08
  TRACK 15 AUDIO
    TITLE "0:"
    INDEX 01 00:14:31
  TRACK 16 AUDIO
    TITLE "16:cjc029_6478"
    INDEX 01 00:14:37
  TRACK 17 AUDIO
    TITLE "0:"
    INDEX 01 00:15:44
  TRACK 18 AUDIO
    TITLE "17:cjc029_6479"
    INDEX 01 00:16:28
  TRACK 19 AUDIO
    TITLE "0:"
    INDEX 01 00:17:65
  TRACK 20 AUDIO
    TITLE "16:cjc029_6480"
    INDEX 01 00:17:72
  TRACK 21 AUDIO
    TITLE "0:"
    INDEX 01 00:19:20
  TRACK 22 AUDIO
    TITLE "17:cjc029_6481"
    INDEX 01 00:20:02
  TRACK 23 AUDIO
    TITLE "0:"
    INDEX 01 00:21:31
  TRACK 24 AUDIO
    TITLE "16:cjc029_6482"
    INDEX 01 00:21:37
  TRACK 25 AUDIO
    TITLE "0:"
    INDEX 01 00:22:36
  TRACK 26 AUDIO
    TITLE "17:cjc029_6483"
    INDEX 01 00:23:24
  TRACK 27 AUDIO
    TITLE "0:"
    INDEX 01 00:24:37
  TRACK 28 AUDIO
    TITLE "16:cjc029_6484"
    INDEX 01 00:24:43
  TRACK 29 AUDIO
    TITLE "0:"
    INDEX 01 00:25:48
  TRACK 30 AUDIO
    TITLE "17:cjc029_6485"
    INDEX 01 00:26:32
  TRACK 31 AUDIO
    TITLE "0:"
    INDEX 01 00:28:66
  TRACK 32 AUDIO
    TITLE "16:cjc029_6486"
    INDEX 01 00:29:01
  TRACK 33 AUDIO
    TITLE "0:"
    INDEX 01 00:30:01
  TRACK 34 AUDIO
    TITLE "17:cjc029_6487"
    INDEX 01 00:30:61
  TRACK 35 AUDIO
    TITLE "0:"
    INDEX 01 00:31:65
  TRACK 36 AUDIO
    TITLE "16:cjc029_6488"
    INDEX 01 00:31:71
  TRACK 37 AUDIO
    TITLE "0:"
    INDEX 01 00:33:17
  TRACK 38 AUDIO
    TITLE "17:cjc029_6489"
    INDEX 01 00:34:02
  TRACK 39 AUDIO
    TITLE "0:"
    INDEX 01 00:35:10
  TRACK 40 AUDIO
    TITLE "16:cjc029_6490"
    INDEX 01 00:35:15
  TRACK 41 AUDIO
    TITLE "0:"
    INDEX 01 00:36:13
  TRACK 42 AUDIO
    TITLE "17:cjc029_6491"
    INDEX 01 00:36:72
  TRACK 43 AUDIO
    TITLE "0:"
    INDEX 01 00:38:41
  TRACK 44 AUDIO
    TITLE "16:cjc029_6492"
    INDEX 01 00:38:47
  TRACK 45 AUDIO
    TITLE "0:"
    INDEX 01 00:40:09
  TRACK 46 AUDIO
    TITLE "17:cjc029_6493"
    INDEX 01 00:40:66
  TRACK 47 AUDIO
    TITLE "0:"
    INDEX 01 00:42:19
  TRACK 48 AUDIO
    TITLE "16:cjc029_6494"
    INDEX 01 00:42:25
  TRACK 49 AUDIO
    TITLE "0:"
    INDEX 01 00:43:40
  TRACK 50 AUDIO
    TITLE "17:cjc029_6495"
    INDEX 01 00:44:24
  TRACK 51 AUDIO
    TITLE "0:"
    INDEX 01 00:46:45
  TRACK 52 AUDIO
    TITLE "16:cjc029_6496"
    INDEX 01 00:46:54
  TRACK 53 AUDIO
    TITLE "0:"
    INDEX 01 00:48:00
  TRACK 54 AUDIO
    TITLE "17:cjc029_6497"
    INDEX 01 00:48:59
  TRACK 55 AUDIO
    TITLE "0:"
    INDEX 01 00:52:04
  TRACK 56 AUDIO
    TITLE "16:cjc029_6498"
    INDEX 01 00:52:08
  TRACK 57 AUDIO
    TITLE "0:"
    INDEX 01 00:53:31
  TRACK 58 AUDIO
    TITLE "17:cjc029_6499"
    INDEX 01 00:54:17
  TRACK 59 AUDIO
    TITLE "0:"
    INDEX 01 00:55:20
  TRACK 60 AUDIO
    TITLE "16:cjc029_6500"
    INDEX 01 00:55:26
  TRACK 61 AUDIO
    TITLE "0:"
    INDEX 01 00:56:24
  TRACK 62 AUDIO
    TITLE "17:cjc029_6501"
    INDEX 01 00:57:05
  TRACK 63 AUDIO
    TITLE "0:"
    INDEX 01 00:57:68
  TRACK 64 AUDIO
    TITLE "16:cjc029_6502"
    INDEX 01 00:58:01
  TRACK 65 AUDIO
    TITLE "0:"
    INDEX 01 00:58:67
  TRACK 66 AUDIO
    TITLE "17:cjc029_6503"
    INDEX 01 00:59:53
  TRACK 67 AUDIO
    TITLE "0:"
    INDEX 01 01:01:72
  TRACK 68 AUDIO
    TITLE "16:cjc029_6504"
    INDEX 01 01:02:03
  TRACK 69 AUDIO
    TITLE "0:"
    INDEX 01 01:03:14
